<svg xmlns="http://www.w3.org/2000/svg" version="1.1" xmlns:xlink="http://www.w3.org/1999/xlink" xmlns:svgjs="http://svgjs.dev/svgjs" width="1440" height="560" preserveAspectRatio="none" viewBox="0 0 1440 560"><g mask="url(&quot;#SvgjsMask1010&quot;)" fill="none"><rect width="1440" height="560" x="0" y="0" fill="#0e2a47"></rect><path d="M 0,91 C 57.6,101 172.8,148.4 288,141 C 403.2,133.6 460.8,48.2 576,54 C 691.2,59.8 748.8,168.6 864,170 C 979.2,171.4 1036.8,63 1152,61 C 1267.2,59 1382.4,140.2 1440,160L1440 560L0 560z" fill="#184a7e"></path><path d="M 0,466 C 96,441 288,336.2 480,341 C 672,345.8 768,483.4 960,490 C 1152,496.6 1344,397.2 1440,374L1440 560L0 560z" fill="#2264ab"></path></g><defs><mask id="SvgjsMask1010"><rect width="1440" height="560" fill="#ffffff"></rect></mask></defs></svg>