<svg id="visual" viewBox="0 0 900 600" width="900" height="600" xmlns="http://www.w3.org/2000/svg" xmlns:xlink="http://www.w3.org/1999/xlink" version="1.1"><rect x="0" y="0" width="900" height="600" fill="#001220"></rect><path d="M0 477L21.5 470.2C43 463.3 86 449.7 128.8 448.2C171.7 446.7 214.3 457.3 257.2 455.3C300 453.3 343 438.7 385.8 436.7C428.7 434.7 471.3 445.3 514.2 454C557 462.7 600 469.3 642.8 465.2C685.7 461 728.3 446 771.2 433.5C814 421 857 411 878.5 406L900 401L900 601L878.5 601C857 601 814 601 771.2 601C728.3 601 685.7 601 642.8 601C600 601 557 601 514.2 601C471.3 601 428.7 601 385.8 601C343 601 300 601 257.2 601C214.3 601 171.7 601 128.8 601C86 601 43 601 21.5 601L0 601Z" fill="#0066ff"></path><path d="M0 487L21.5 480.7C43 474.3 86 461.7 128.8 462C171.7 462.3 214.3 475.7 257.2 484.2C300 492.7 343 496.3 385.8 498.5C428.7 500.7 471.3 501.3 514.2 498.2C557 495 600 488 642.8 477.7C685.7 467.3 728.3 453.7 771.2 449.3C814 445 857 450 878.5 452.5L900 455L900 601L878.5 601C857 601 814 601 771.2 601C728.3 601 685.7 601 642.8 601C600 601 557 601 514.2 601C471.3 601 428.7 601 385.8 601C343 601 300 601 257.2 601C214.3 601 171.7 601 128.8 601C86 601 43 601 21.5 601L0 601Z" fill="#8c4ddc"></path><path d="M0 503L21.5 503C43 503 86 503 128.8 500.2C171.7 497.3 214.3 491.7 257.2 488.7C300 485.7 343 485.3 385.8 491.8C428.7 498.3 471.3 511.7 514.2 509.8C557 508 600 491 642.8 489C685.7 487 728.3 500 771.2 499.8C814 499.7 857 486.3 878.5 479.7L900 473L900 601L878.5 601C857 601 814 601 771.2 601C728.3 601 685.7 601 642.8 601C600 601 557 601 514.2 601C471.3 601 428.7 601 385.8 601C343 601 300 601 257.2 601C214.3 601 171.7 601 128.8 601C86 601 43 601 21.5 601L0 601Z" fill="#b434b4"></path><path d="M0 543L21.5 537.3C43 531.7 86 520.3 128.8 520.2C171.7 520 214.3 531 257.2 532.5C300 534 343 526 385.8 523.7C428.7 521.3 471.3 524.7 514.2 528.5C557 532.3 600 536.7 642.8 533.7C685.7 530.7 728.3 520.3 771.2 515.2C814 510 857 510 878.5 510L900 510L900 601L878.5 601C857 601 814 601 771.2 601C728.3 601 685.7 601 642.8 601C600 601 557 601 514.2 601C471.3 601 428.7 601 385.8 601C343 601 300 601 257.2 601C214.3 601 171.7 601 128.8 601C86 601 43 601 21.5 601L0 601Z" fill="#c5218c"></path><path d="M0 569L21.5 566.5C43 564 86 559 128.8 557.8C171.7 556.7 214.3 559.3 257.2 558C300 556.7 343 551.3 385.8 552.2C428.7 553 471.3 560 514.2 563.8C557 567.7 600 568.3 642.8 568.8C685.7 569.3 728.3 569.7 771.2 566.5C814 563.3 857 556.7 878.5 553.3L900 550L900 601L878.5 601C857 601 814 601 771.2 601C728.3 601 685.7 601 642.8 601C600 601 557 601 514.2 601C471.3 601 428.7 601 385.8 601C343 601 300 601 257.2 601C214.3 601 171.7 601 128.8 601C86 601 43 601 21.5 601L0 601Z" fill="#c62368"></path></svg>